<svg width="196" height="50" viewBox="0 0 196 50" fill="none" xmlns="http://www.w3.org/2000/svg">
<g clip-path="url(#clip0_7817_11292)">
<path d="M24.9156 1.15308C11.6349 1.15308 0.880859 11.9201 0.880859 25.2008C0.880859 31.718 3.4722 37.6133 7.68314 41.9538C9.36751 41.0468 12.8788 38.7146 16.6233 33.519C22.2983 25.719 21.5468 24.1513 13.4618 16.3254C13.41 16.2606 13.3582 16.1958 13.3064 16.1051C13.2804 16.0274 13.2545 15.9497 13.2416 15.8719C13.2416 15.7812 13.2416 15.6905 13.2675 15.6128C13.2934 15.5221 13.3452 15.4314 13.423 15.3407C13.423 15.3407 13.423 15.3407 13.4359 15.3277C13.4359 15.3277 13.4359 15.3277 13.4359 15.3148C13.5007 15.237 13.5784 15.1852 13.6562 15.1463C13.7339 15.1075 13.8376 15.0816 13.9283 15.0686C14.006 15.0686 14.0967 15.0686 14.2004 15.0945C14.2781 15.1204 14.3559 15.1593 14.4336 15.2241C16.0661 16.4679 17.4525 17.5045 18.6704 18.3337C20.588 19.5775 22.2465 20.3679 23.7754 20.6011C26.6518 20.8473 29.1265 18.6447 33.8816 13.7859C33.9464 13.7211 34.0112 13.6693 34.1019 13.6304C34.1796 13.5915 34.2703 13.5656 34.374 13.5656C34.4647 13.5656 34.5554 13.5656 34.6331 13.5915C34.7886 13.6434 34.8923 13.7341 34.957 13.8766C34.9959 13.9543 35.0218 14.045 35.0218 14.1487C35.0218 14.2394 35.0218 14.3171 34.9959 14.4078C34.97 14.4985 34.9311 14.5762 34.8793 14.641C27.4162 24.4881 27.5199 25.5765 36.3305 34.115C36.3823 34.1798 36.4341 34.2446 36.4859 34.3352C36.5119 34.413 36.5378 34.4907 36.5507 34.5685C36.5507 34.6592 36.5507 34.7499 36.5248 34.8276C36.4989 34.9183 36.4471 35.009 36.3693 35.0997C36.3693 35.0997 36.3693 35.0997 36.3564 35.1127C36.3564 35.1127 36.3564 35.1127 36.3564 35.1256C36.2916 35.2033 36.2138 35.2552 36.1361 35.294C36.0584 35.3329 35.9547 35.3588 35.864 35.3718C35.7863 35.3718 35.6956 35.3718 35.5919 35.3459C35.5142 35.32 35.4364 35.2811 35.3587 35.2163C33.7262 33.9725 32.3527 32.9359 31.1348 32.1196C29.2302 30.8888 27.5976 30.0984 26.0687 29.8522C23.6458 29.619 21.5209 31.122 18.1133 34.4519C18.1133 34.4519 13.2804 39.5698 11.609 45.2319C15.4183 47.7714 19.992 49.2484 24.9156 49.2484C38.1962 49.2484 48.9633 38.4814 48.9633 25.2008C48.9633 11.9201 38.1962 1.15308 24.9156 1.15308Z" fill="#FFFFFF"/>
<path d="M103.395 13.6306C98.99 13.6306 96.2173 16.5977 95.699 18.4505V14.0841H92.5635V43.2497H95.699V30.4096C96.1395 32.4438 98.8345 35.2943 103.395 35.2943C106.414 35.2943 109.006 34.2189 111.13 32.1069C113.242 29.995 114.318 27.4166 114.318 24.4624C114.318 21.5083 113.242 18.9299 111.13 16.818C109.019 14.706 106.414 13.6306 103.395 13.6306ZM108.915 30.0079C107.386 31.5627 105.611 32.3272 103.473 32.3272C101.335 32.3272 99.5212 31.5627 97.9535 29.995C96.3857 28.4272 95.6213 26.6262 95.6213 24.5013C95.6213 22.3764 96.3857 20.5495 97.9535 18.9558C99.5212 17.3622 101.309 16.5847 103.447 16.5847C105.585 16.5847 107.36 17.3492 108.889 18.9299C110.431 20.5106 111.182 22.3246 111.182 24.4754C111.182 26.6262 110.444 28.4272 108.915 29.995V30.0079Z" fill="#FFFFFF"/>
<path d="M123.076 30.6947C122.104 29.7359 121.637 28.5568 121.637 27.0797V17.103H127.455V14.136H121.637V6.46558H118.502V27.0797C118.502 29.399 119.305 31.3425 120.886 32.8455C122.454 34.3355 124.384 35.087 126.6 35.087H127.494V32.1199H126.6C125.201 32.1199 124.047 31.6534 123.076 30.6947Z" fill="#FFFFFF"/>
<path d="M148.044 26.0171C148.044 27.7145 147.409 29.1656 146.1 30.4224C144.792 31.6922 143.315 32.3141 141.604 32.3141C139.894 32.3141 138.495 31.7051 137.303 30.4483C136.098 29.1786 135.502 27.7274 135.502 26.0171V14.084H132.366V26.0171C132.366 28.5826 133.26 30.7852 135.022 32.5862C136.784 34.3872 139 35.2941 141.604 35.2941C144.209 35.2941 147.305 33.532 148.044 30.6297V34.8277H151.179V14.084H148.044V26.0171Z" fill="#FFFFFF"/>
<path d="M160.728 17.4528V14.097H157.593V34.8408H160.728V22.0395C160.728 20.7957 161.195 18.9947 162.167 18.0359C163.138 17.0771 164.227 16.7013 165.47 16.6106C168.554 16.3904 170.459 18.308 170.459 18.308V14.9911C170.459 14.9911 168.813 13.6436 165.768 13.6436C162.244 13.6436 161.039 16.6236 160.728 17.4658V17.4528Z" fill="#FFFFFF"/>
<path d="M191.332 14.0841V18.4116C190.865 16.9475 188.52 13.6306 183.635 13.6306C180.655 13.6306 178.064 14.706 175.926 16.818C173.788 18.9299 172.713 21.5083 172.713 24.4624C172.713 27.4166 173.788 29.995 175.926 32.1069C178.051 34.2189 180.642 35.2943 183.635 35.2943C187.782 35.2943 190.878 32.5474 191.332 30.4355V34.8278H194.467V14.0841H191.332ZM189.142 30.0079C187.613 31.5627 185.838 32.3272 183.7 32.3272C181.562 32.3272 179.748 31.5627 178.181 29.995C176.613 28.4272 175.848 26.6262 175.848 24.5013C175.848 22.3764 176.613 20.5495 178.181 18.9558C179.748 17.3622 181.536 16.5847 183.674 16.5847C185.812 16.5847 187.587 17.3492 189.116 18.9299C190.658 20.5106 191.409 22.3246 191.409 24.4754C191.409 26.6262 190.671 28.4272 189.142 29.995V30.0079Z" fill="#FFFFFF"/>
<path d="M77.0792 35.4756C71.0673 35.4756 66.1826 30.5909 66.1826 24.579C66.1826 18.5671 71.0673 13.6824 77.0792 13.6824C83.0911 13.6824 87.9758 18.5671 87.9758 24.579C87.9758 30.5909 83.0911 35.4756 77.0792 35.4756ZM77.0792 16.7013C72.7387 16.7013 69.2015 20.2385 69.2015 24.579C69.2015 28.9195 72.7387 32.4567 77.0792 32.4567C81.4197 32.4567 84.9569 28.9195 84.9569 24.579C84.9569 20.2385 81.4197 16.7013 77.0792 16.7013Z" fill="#FFFFFF"/>
</g>
<defs>
<clipPath id="clip0_7817_11292">
<rect width="195.802" height="50" fill="white"/>
</clipPath>
</defs>
</svg>
